<?xml version="1.0" standalone="no"?>
<!DOCTYPE svg PUBLIC "-//W3C//DTD SVG 20010904//EN"
 "http://www.w3.org/TR/2001/REC-SVG-20010904/DTD/svg10.dtd">
<svg version="1.0" xmlns="http://www.w3.org/2000/svg"
 width="260.000000pt" height="260.000000pt" viewBox="0 0 260.000000 260.000000"
 preserveAspectRatio="xMidYMid meet">
<metadata>
Created by potrace 1.11, written by Peter Selinger 2001-2013
</metadata>
<g transform="translate(0.000000,260.000000) scale(0.100000,-0.100000)"
fill="#000000" stroke="none">
<path d="M0 1300 l0 -1300 1300 0 1300 0 0 1300 0 1300 -1300 0 -1300 0 0
-1300z m1570 885 c389 -85 708 -345 895 -728 91 -187 92 -169 -21 -196 -52
-13 -96 -22 -97 -20 -1 2 -19 40 -40 84 -156 325 -432 573 -728 654 -165 46
-383 46 -548 0 -296 -81 -572 -329 -728 -654 -21 -44 -39 -82 -40 -84 -1 -2
-45 7 -97 20 -113 27 -112 9 -21 196 161 329 431 579 745 686 66 23 175 48
265 61 64 9 342 -3 415 -19z m-150 -693 l0 -217 -120 -120 -120 -120 0 338 0
337 120 0 120 0 0 -218z m-493 -46 l78 -74 -22 -24 c-12 -12 -34 -50 -50 -83
-25 -54 -28 -71 -28 -165 0 -99 2 -110 33 -172 79 -160 251 -249 424 -220 288
50 430 369 271 611 l-35 54 73 73 c41 41 78 74 84 74 30 -1 124 -166 150 -265
20 -77 19 -230 -1 -309 -42 -161 -178 -329 -326 -400 -380 -182 -810 32 -894
444 -33 166 6 336 113 483 19 26 38 47 43 47 5 0 44 -33 87 -74z"/>
</g>
</svg>
