<?xml version="1.0" encoding="UTF-8"?>
<svg xmlns="http://www.w3.org/2000/svg" xmlns:xlink="http://www.w3.org/1999/xlink" width="100px" height="76px" viewBox="0 0 100 76" version="1.1">
<g id="surface1">
<path style=" stroke:none;fill-rule:nonzero;fill:rgb(12.156863%,9.411765%,52.941176%);fill-opacity:1;" d="M 73.097656 16.496094 C 73.097656 16.167969 73.425781 15.949219 73.757812 15.949219 C 74.085938 15.949219 74.304688 16.167969 74.304688 16.496094 C 74.304688 16.828125 73.976562 17.046875 73.757812 17.046875 C 73.316406 17.15625 73.097656 16.828125 73.097656 16.496094 Z M 73.207031 18.148438 L 74.085938 18.148438 L 74.085938 23.757812 L 73.207031 23.757812 Z M 73.207031 18.148438 "/>
<path style=" stroke:none;fill-rule:nonzero;fill:rgb(12.156863%,9.411765%,52.941176%);fill-opacity:1;" d="M 81.65625 18.148438 L 81.65625 24.195312 C 81.65625 25.847656 80.339844 27.054688 78.804688 27.054688 C 77.597656 27.054688 76.5 26.285156 76.0625 25.078125 L 76.828125 24.746094 C 77.046875 25.515625 77.816406 26.175781 78.804688 26.175781 C 79.902344 26.175781 80.890625 25.296875 80.890625 24.085938 L 80.890625 23.097656 C 80.339844 23.648438 79.683594 23.976562 78.804688 23.976562 C 77.160156 23.976562 75.953125 22.65625 75.953125 21.117188 C 75.953125 19.46875 77.269531 18.257812 78.804688 18.257812 C 79.574219 18.257812 80.339844 18.585938 80.78125 19.027344 L 80.78125 18.367188 L 81.65625 18.367188 Z M 80.78125 21.007812 C 80.78125 19.90625 79.902344 18.917969 78.695312 18.917969 C 77.597656 18.917969 76.609375 19.796875 76.609375 21.007812 C 76.609375 22.105469 77.488281 23.097656 78.695312 23.097656 C 79.902344 22.988281 80.78125 22.105469 80.78125 21.007812 Z M 80.78125 21.007812 "/>
<path style=" stroke:none;fill-rule:nonzero;fill:rgb(12.156863%,9.411765%,52.941176%);fill-opacity:1;" d="M 83.632812 16.496094 C 83.632812 16.167969 83.960938 15.949219 84.289062 15.949219 C 84.621094 15.949219 84.839844 16.167969 84.839844 16.496094 C 84.839844 16.828125 84.511719 17.046875 84.289062 17.046875 C 83.960938 17.15625 83.632812 16.828125 83.632812 16.496094 Z M 83.851562 18.148438 L 84.730469 18.148438 L 84.730469 23.757812 L 83.851562 23.757812 Z M 83.851562 18.148438 "/>
<path style=" stroke:none;fill-rule:nonzero;fill:rgb(12.156863%,9.411765%,52.941176%);fill-opacity:1;" d="M 87.910156 19.027344 L 87.910156 22.21875 C 87.910156 22.765625 88.351562 23.097656 88.789062 23.097656 L 89.449219 23.097656 L 89.449219 23.757812 C 89.339844 23.867188 89.007812 23.976562 88.679688 23.976562 C 87.800781 23.976562 87.035156 23.316406 87.035156 22.4375 L 87.035156 19.136719 L 86.046875 19.136719 L 86.046875 18.257812 L 87.035156 18.257812 L 87.035156 15.839844 L 87.910156 15.839844 L 87.910156 18.257812 L 89.449219 18.257812 L 89.449219 19.136719 L 87.910156 19.136719 Z M 87.910156 19.027344 "/>
<path style=" stroke:none;fill-rule:nonzero;fill:rgb(12.156863%,9.411765%,52.941176%);fill-opacity:1;" d="M 96.472656 23.097656 L 96.472656 23.867188 C 96.363281 23.976562 96.25 23.976562 96.03125 23.976562 C 95.375 23.976562 94.933594 23.535156 94.714844 22.988281 C 94.277344 23.648438 93.507812 23.976562 92.519531 23.976562 C 91.3125 23.976562 90.65625 23.316406 90.65625 22.4375 C 90.65625 21.445312 91.421875 20.898438 92.519531 20.898438 L 94.605469 20.898438 L 94.605469 20.457031 C 94.605469 19.578125 93.949219 19.136719 93.070312 19.136719 C 92.191406 19.136719 91.535156 19.578125 91.535156 20.457031 L 90.65625 20.457031 C 90.65625 19.136719 91.753906 18.257812 93.070312 18.257812 C 94.386719 18.257812 95.484375 19.136719 95.484375 20.457031 L 95.484375 22.546875 C 95.484375 23.097656 95.703125 23.316406 96.03125 23.316406 L 96.472656 23.316406 Z M 94.605469 21.886719 L 94.605469 21.558594 L 92.628906 21.558594 C 91.972656 21.558594 91.535156 21.886719 91.535156 22.4375 C 91.535156 22.988281 91.972656 23.316406 92.628906 23.316406 C 93.617188 23.097656 94.386719 22.65625 94.605469 21.886719 Z M 94.605469 21.886719 "/>
<path style=" stroke:none;fill-rule:nonzero;fill:rgb(12.156863%,9.411765%,52.941176%);fill-opacity:1;" d="M 97.570312 13.527344 L 98.445312 13.527344 L 98.445312 23.867188 L 97.570312 23.867188 Z M 97.570312 13.527344 "/>
<path style=" stroke:none;fill-rule:nonzero;fill:rgb(12.156863%,9.411765%,52.941176%);fill-opacity:1;" d="M 71.34375 32.996094 L 71.34375 29.367188 L 72.21875 29.367188 L 72.21875 32.886719 C 72.21875 33.765625 72.769531 34.207031 73.425781 34.207031 C 74.195312 34.207031 74.632812 33.65625 74.632812 32.886719 L 74.632812 29.367188 L 75.511719 29.367188 L 75.511719 32.996094 C 75.511719 34.316406 74.632812 35.085938 73.425781 35.085938 C 72.21875 35.085938 71.34375 34.316406 71.34375 32.996094 Z M 71.34375 32.996094 "/>
<path style=" stroke:none;fill-rule:nonzero;fill:rgb(12.156863%,9.411765%,52.941176%);fill-opacity:1;" d="M 80.339844 29.257812 C 79.574219 29.257812 78.804688 29.585938 78.253906 30.136719 L 78.253906 26.175781 C 77.925781 26.066406 77.707031 26.066406 77.378906 25.957031 L 77.378906 35.085938 L 78.253906 35.085938 L 78.253906 34.316406 C 78.804688 34.867188 79.460938 35.195312 80.339844 35.195312 C 81.988281 35.195312 83.195312 33.875 83.195312 32.335938 C 83.195312 30.796875 81.875 29.257812 80.339844 29.257812 Z M 80.339844 34.207031 C 79.242188 34.207031 78.253906 33.324219 78.253906 32.117188 C 78.253906 31.015625 79.132812 30.027344 80.339844 30.027344 C 81.4375 30.027344 82.425781 30.90625 82.425781 32.117188 C 82.316406 33.324219 81.4375 34.207031 80.339844 34.207031 Z M 80.339844 34.207031 "/>
<path style=" stroke:none;fill-rule:nonzero;fill:rgb(12.156863%,9.411765%,52.941176%);fill-opacity:1;" d="M 84.839844 24.636719 L 85.71875 24.636719 L 85.71875 34.976562 L 84.839844 34.976562 Z M 84.839844 24.636719 "/>
<path style=" stroke:none;fill-rule:nonzero;fill:rgb(12.156863%,9.411765%,52.941176%);fill-opacity:1;" d="M 87.691406 27.714844 C 87.691406 27.386719 88.023438 27.167969 88.351562 27.167969 C 88.679688 27.167969 88.898438 27.386719 88.898438 27.714844 C 88.898438 28.046875 88.570312 28.265625 88.351562 28.265625 C 88.023438 28.375 87.691406 28.046875 87.691406 27.714844 Z M 87.910156 29.367188 L 88.789062 29.367188 L 88.789062 34.976562 L 87.910156 34.976562 Z M 87.910156 29.367188 "/>
<path style=" stroke:none;fill-rule:nonzero;fill:rgb(12.156863%,9.411765%,52.941176%);fill-opacity:1;" d="M 90.546875 32.226562 C 90.546875 30.574219 91.863281 29.367188 93.398438 29.367188 C 94.714844 29.367188 95.8125 30.246094 96.140625 31.347656 L 95.265625 31.347656 C 94.933594 30.6875 94.277344 30.246094 93.398438 30.246094 C 92.300781 30.246094 91.3125 31.125 91.3125 32.335938 C 91.3125 33.546875 92.191406 34.425781 93.398438 34.425781 C 94.167969 34.425781 94.933594 33.984375 95.265625 33.324219 L 96.140625 33.324219 C 95.8125 34.535156 94.714844 35.304688 93.398438 35.304688 C 91.753906 35.085938 90.546875 33.765625 90.546875 32.226562 Z M 90.546875 32.226562 "/>
<path style=" stroke:none;fill-rule:nonzero;fill:rgb(12.156863%,9.411765%,52.941176%);fill-opacity:1;" d="M 73.425781 40.804688 L 73.425781 41.023438 C 73.425781 43.445312 71.453125 45.3125 69.148438 45.3125 C 66.734375 45.3125 64.867188 43.335938 64.867188 41.023438 C 64.867188 38.605469 66.734375 36.734375 69.148438 36.734375 C 70.792969 36.734375 72.109375 37.613281 72.878906 38.933594 L 72.109375 39.375 C 71.5625 38.386719 70.464844 37.613281 69.148438 37.613281 C 67.28125 37.613281 65.746094 39.15625 65.746094 41.023438 C 65.746094 42.894531 67.28125 44.433594 69.148438 44.433594 C 70.792969 44.433594 72.21875 43.222656 72.550781 41.574219 L 69.148438 41.574219 L 69.148438 40.695312 L 73.425781 40.695312 Z M 73.425781 40.804688 "/>
<path style=" stroke:none;fill-rule:nonzero;fill:rgb(12.156863%,9.411765%,52.941176%);fill-opacity:1;" d="M 74.746094 42.453125 C 74.746094 40.804688 76.0625 39.59375 77.597656 39.59375 C 79.242188 39.59375 80.449219 40.914062 80.449219 42.453125 C 80.449219 44.105469 79.132812 45.3125 77.597656 45.3125 C 76.0625 45.425781 74.746094 44.105469 74.746094 42.453125 Z M 79.683594 42.453125 C 79.683594 41.355469 78.804688 40.363281 77.597656 40.363281 C 76.5 40.363281 75.511719 41.246094 75.511719 42.453125 C 75.511719 43.664062 76.390625 44.542969 77.597656 44.542969 C 78.804688 44.542969 79.683594 43.664062 79.683594 42.453125 Z M 79.683594 42.453125 "/>
<path style=" stroke:none;fill-rule:nonzero;fill:rgb(12.156863%,9.411765%,52.941176%);fill-opacity:1;" d="M 81.765625 42.453125 C 81.765625 40.804688 83.082031 39.59375 84.621094 39.59375 C 86.265625 39.59375 87.472656 40.914062 87.472656 42.453125 C 87.472656 44.105469 86.15625 45.3125 84.621094 45.3125 C 83.082031 45.425781 81.765625 44.105469 81.765625 42.453125 Z M 86.703125 42.453125 C 86.703125 41.355469 85.828125 40.363281 84.621094 40.363281 C 83.523438 40.363281 82.535156 41.246094 82.535156 42.453125 C 82.535156 43.664062 83.414062 44.542969 84.621094 44.542969 C 85.828125 44.542969 86.703125 43.664062 86.703125 42.453125 Z M 86.703125 42.453125 "/>
<path style=" stroke:none;fill-rule:nonzero;fill:rgb(12.156863%,9.411765%,52.941176%);fill-opacity:1;" d="M 94.714844 34.976562 L 94.714844 45.3125 L 93.835938 45.3125 L 93.835938 44.542969 C 93.289062 45.09375 92.628906 45.425781 91.753906 45.425781 C 90.105469 45.425781 88.898438 44.105469 88.898438 42.5625 C 88.898438 40.914062 90.214844 39.703125 91.753906 39.703125 C 92.519531 39.703125 93.289062 40.035156 93.835938 40.585938 L 93.835938 35.195312 L 94.714844 35.195312 Z M 93.835938 42.453125 C 93.835938 41.355469 92.960938 40.363281 91.753906 40.363281 C 90.65625 40.363281 89.667969 41.246094 89.667969 42.453125 C 89.667969 43.664062 90.546875 44.542969 91.753906 44.542969 C 92.851562 44.542969 93.835938 43.664062 93.835938 42.453125 Z M 93.835938 42.453125 "/>
<path style=" stroke:none;fill-rule:nonzero;fill:rgb(12.156863%,9.411765%,52.941176%);fill-opacity:1;" d="M 96.140625 44.214844 L 97.019531 43.882812 C 97.128906 44.324219 97.570312 44.542969 98.117188 44.542969 C 98.664062 44.542969 98.996094 44.214844 98.996094 43.773438 C 98.996094 43.335938 98.664062 43.113281 98.007812 42.894531 C 97.019531 42.5625 96.472656 42.015625 96.472656 41.132812 C 96.472656 40.144531 97.238281 39.59375 98.117188 39.59375 C 98.777344 39.59375 99.542969 40.035156 99.761719 40.476562 L 98.886719 40.914062 C 98.777344 40.585938 98.445312 40.476562 98.007812 40.476562 C 97.570312 40.476562 97.238281 40.695312 97.238281 41.132812 C 97.238281 41.574219 97.570312 41.792969 98.226562 42.125 C 98.996094 42.453125 99.761719 42.785156 99.761719 43.773438 C 99.761719 44.765625 98.996094 45.425781 98.007812 45.425781 C 97.238281 45.425781 96.363281 44.875 96.140625 44.214844 Z M 96.140625 44.214844 "/>
<path style=" stroke:none;fill-rule:nonzero;fill:rgb(12.156863%,9.411765%,52.941176%);fill-opacity:1;" d="M 66.296875 51.472656 L 65.527344 53.34375 L 65.089844 53.34375 L 67.28125 48.171875 L 69.476562 53.34375 L 69.039062 53.34375 L 68.269531 51.582031 L 68.269531 51.472656 L 67.28125 49.054688 Z M 66.074219 51.363281 L 68.378906 51.363281 L 68.488281 51.691406 L 65.964844 51.691406 Z M 66.074219 51.363281 "/>
<path style=" stroke:none;fill-rule:nonzero;fill:rgb(12.156863%,9.411765%,52.941176%);fill-opacity:1;" d="M 70.464844 47.84375 L 70.464844 53.453125 L 70.136719 53.453125 L 70.136719 47.84375 Z M 70.464844 47.84375 "/>
<path style=" stroke:none;fill-rule:nonzero;fill:rgb(12.156863%,9.411765%,52.941176%);fill-opacity:1;" d="M 71.890625 47.84375 L 71.890625 53.453125 L 71.5625 53.453125 L 71.5625 47.84375 Z M 71.890625 47.84375 "/>
<path style=" stroke:none;fill-rule:nonzero;fill:rgb(12.156863%,9.411765%,52.941176%);fill-opacity:1;" d="M 73.097656 48.394531 C 73.097656 48.394531 73.207031 48.285156 73.316406 48.285156 C 73.425781 48.285156 73.425781 48.285156 73.539062 48.394531 C 73.539062 48.394531 73.648438 48.503906 73.648438 48.613281 C 73.648438 48.722656 73.648438 48.722656 73.539062 48.832031 C 73.539062 48.832031 73.425781 48.945312 73.316406 48.945312 C 73.207031 48.945312 73.207031 48.945312 73.097656 48.832031 C 73.097656 48.832031 72.988281 48.722656 72.988281 48.613281 C 73.097656 48.503906 73.097656 48.503906 73.097656 48.394531 Z M 73.539062 50.152344 L 73.539062 53.453125 L 73.207031 53.453125 L 73.207031 50.152344 Z M 73.539062 50.152344 "/>
<path style=" stroke:none;fill-rule:nonzero;fill:rgb(12.156863%,9.411765%,52.941176%);fill-opacity:1;" d="M 74.632812 50.8125 C 74.746094 50.59375 74.964844 50.375 75.183594 50.261719 C 75.402344 50.152344 75.730469 50.042969 75.953125 50.042969 C 76.28125 50.042969 76.5 50.152344 76.71875 50.261719 C 76.9375 50.375 77.046875 50.59375 77.160156 50.921875 C 77.269531 51.144531 77.378906 51.472656 77.378906 51.804688 C 77.378906 52.132812 77.269531 52.464844 77.160156 52.683594 C 77.046875 52.902344 76.828125 53.121094 76.71875 53.34375 C 76.5 53.453125 76.28125 53.5625 75.953125 53.5625 C 75.621094 53.5625 75.402344 53.453125 75.183594 53.34375 C 74.964844 53.234375 74.746094 53.011719 74.632812 52.792969 C 74.523438 52.574219 74.414062 52.242188 74.414062 51.914062 C 74.414062 51.363281 74.523438 51.144531 74.632812 50.8125 Z M 74.964844 52.464844 C 75.074219 52.683594 75.183594 52.792969 75.402344 52.902344 C 75.621094 53.011719 75.839844 53.011719 76.0625 53.011719 C 76.28125 53.011719 76.5 52.902344 76.609375 52.792969 C 76.71875 52.683594 76.9375 52.464844 77.046875 52.351562 C 77.160156 52.132812 77.160156 51.914062 77.160156 51.691406 C 77.160156 51.472656 77.046875 51.144531 77.046875 51.035156 C 76.9375 50.8125 76.828125 50.703125 76.609375 50.59375 C 76.390625 50.484375 76.28125 50.375 76.0625 50.375 C 75.839844 50.375 75.621094 50.375 75.402344 50.484375 C 75.183594 50.59375 75.074219 50.703125 74.964844 50.921875 C 74.855469 51.144531 74.746094 51.363281 74.746094 51.691406 C 74.746094 52.023438 74.855469 52.242188 74.964844 52.464844 Z M 77.597656 50.152344 L 77.597656 53.453125 L 77.269531 53.453125 L 77.269531 50.152344 Z M 77.597656 50.152344 "/>
<path style=" stroke:none;fill-rule:nonzero;fill:rgb(12.156863%,9.411765%,52.941176%);fill-opacity:1;" d="M 80.558594 50.59375 C 80.449219 50.484375 80.230469 50.375 80.011719 50.375 C 79.792969 50.375 79.683594 50.375 79.460938 50.484375 C 79.351562 50.59375 79.242188 50.703125 79.132812 50.8125 C 79.023438 50.921875 79.023438 51.144531 79.023438 51.363281 L 79.023438 53.34375 L 78.695312 53.34375 L 78.695312 50.042969 L 79.023438 50.042969 L 79.023438 50.703125 C 79.132812 50.484375 79.242188 50.261719 79.460938 50.152344 C 79.683594 50.042969 79.902344 49.933594 80.121094 49.933594 C 80.449219 49.933594 80.667969 50.042969 80.890625 50.261719 C 81.109375 50.484375 81.109375 50.8125 81.109375 51.144531 L 81.109375 53.34375 L 80.78125 53.34375 L 80.78125 51.253906 C 80.78125 51.035156 80.667969 50.8125 80.558594 50.59375 Z M 80.558594 50.59375 "/>
<path style=" stroke:none;fill-rule:nonzero;fill:rgb(12.156863%,9.411765%,52.941176%);fill-opacity:1;" d="M 82.535156 52.464844 C 82.644531 52.683594 82.753906 52.792969 82.972656 52.902344 C 83.195312 53.011719 83.414062 53.121094 83.632812 53.121094 C 83.851562 53.121094 83.960938 53.121094 84.070312 53.011719 C 84.179688 53.011719 84.402344 52.902344 84.511719 52.792969 C 84.621094 52.683594 84.730469 52.574219 84.730469 52.574219 L 84.730469 53.011719 C 84.621094 53.121094 84.511719 53.234375 84.289062 53.34375 C 84.070312 53.453125 83.851562 53.453125 83.632812 53.453125 C 83.304688 53.453125 82.972656 53.34375 82.753906 53.234375 C 82.535156 53.121094 82.316406 52.902344 82.207031 52.574219 C 82.097656 52.351562 81.988281 52.023438 81.988281 51.691406 C 81.988281 51.363281 82.097656 51.035156 82.207031 50.8125 C 82.316406 50.59375 82.535156 50.375 82.753906 50.152344 C 82.972656 50.042969 83.304688 49.933594 83.632812 49.933594 C 83.851562 49.933594 84.070312 49.933594 84.289062 50.042969 C 84.511719 50.152344 84.621094 50.261719 84.730469 50.375 L 84.730469 50.8125 C 84.730469 50.703125 84.621094 50.59375 84.511719 50.59375 C 84.402344 50.484375 84.289062 50.484375 84.070312 50.375 C 83.960938 50.375 83.742188 50.261719 83.632812 50.261719 C 83.414062 50.261719 83.195312 50.375 82.972656 50.484375 C 82.753906 50.59375 82.644531 50.8125 82.535156 50.921875 C 82.425781 51.144531 82.316406 51.363281 82.316406 51.582031 C 82.316406 51.804688 82.425781 52.242188 82.535156 52.464844 Z M 82.535156 52.464844 "/>
<path style=" stroke:none;fill-rule:nonzero;fill:rgb(12.156863%,9.411765%,52.941176%);fill-opacity:1;" d="M 86.15625 53.234375 C 85.9375 53.121094 85.71875 52.902344 85.609375 52.574219 C 85.496094 52.351562 85.386719 52.023438 85.386719 51.691406 C 85.386719 51.363281 85.496094 51.035156 85.609375 50.8125 C 85.71875 50.59375 85.9375 50.375 86.15625 50.261719 C 86.375 50.152344 86.703125 50.042969 86.925781 50.042969 C 87.253906 50.042969 87.472656 50.152344 87.691406 50.261719 C 87.910156 50.375 88.132812 50.59375 88.242188 50.8125 C 88.351562 51.035156 88.460938 51.363281 88.460938 51.691406 C 88.460938 51.691406 88.460938 51.804688 88.460938 51.804688 C 88.460938 51.804688 88.460938 51.914062 88.460938 51.914062 L 85.71875 51.914062 L 85.71875 51.582031 L 88.242188 51.582031 L 88.132812 51.804688 C 88.132812 51.804688 88.132812 51.691406 88.132812 51.691406 C 88.132812 51.691406 88.132812 51.582031 88.132812 51.582031 C 88.132812 51.363281 88.132812 51.144531 88.023438 51.035156 C 87.910156 50.8125 87.800781 50.703125 87.582031 50.59375 C 87.363281 50.484375 87.253906 50.484375 87.035156 50.484375 C 86.816406 50.484375 86.59375 50.59375 86.375 50.703125 C 86.15625 50.8125 86.046875 50.921875 85.9375 51.144531 C 85.828125 51.363281 85.828125 51.582031 85.828125 51.914062 C 85.828125 52.242188 85.828125 52.464844 85.9375 52.683594 C 86.046875 52.902344 86.15625 53.011719 86.375 53.121094 C 86.59375 53.234375 86.816406 53.34375 87.035156 53.34375 C 87.253906 53.34375 87.472656 53.234375 87.691406 53.234375 C 87.910156 53.121094 88.023438 52.902344 88.242188 52.683594 L 88.570312 52.902344 C 88.351562 53.234375 88.132812 53.453125 87.910156 53.5625 C 87.691406 53.671875 87.363281 53.78125 87.035156 53.78125 C 86.703125 53.453125 86.375 53.34375 86.15625 53.234375 Z M 86.15625 53.234375 "/>
<path style=" stroke:none;fill-rule:nonzero;fill:rgb(12.156863%,9.411765%,52.941176%);fill-opacity:1;" d="M 64.976562 15.398438 L 67.28125 15.398438 C 69.585938 15.398438 71.453125 17.269531 71.453125 19.578125 C 71.453125 21.886719 69.585938 23.757812 67.28125 23.757812 L 64.976562 23.757812 Z M 67.28125 22.878906 C 69.148438 22.878906 70.574219 21.445312 70.574219 19.578125 C 70.574219 17.707031 69.148438 16.277344 67.28125 16.277344 L 65.855469 16.277344 L 65.855469 22.878906 Z M 67.28125 22.878906 "/>
<path style=" stroke:none;fill-rule:nonzero;fill:rgb(12.156863%,9.411765%,52.941176%);fill-opacity:1;" d="M 70.246094 28.925781 C 70.246094 30.246094 69.257812 31.234375 67.941406 31.234375 L 65.855469 31.234375 L 65.855469 34.976562 L 64.976562 34.976562 L 64.976562 26.617188 L 67.941406 26.617188 C 69.257812 26.617188 70.246094 27.605469 70.246094 28.925781 Z M 69.367188 28.925781 C 69.367188 28.046875 68.710938 27.496094 67.832031 27.496094 L 65.855469 27.496094 L 65.855469 30.464844 L 67.832031 30.464844 C 68.710938 30.355469 69.367188 29.804688 69.367188 28.925781 Z M 69.367188 28.925781 "/>
<path style=" stroke:none;fill-rule:nonzero;fill:rgb(16.470588%,9.411765%,63.921569%);fill-opacity:1;" d="M 36.777344 0 L 0.128906 16.496094 L 0.128906 66.652344 L 14.503906 75.890625 L 51.042969 59.390625 L 51.042969 9.347656 Z M 14.503906 60.160156 L 14.503906 25.738281 L 36.777344 15.066406 L 36.777344 49.824219 Z M 14.503906 60.160156 "/>
<path style=" stroke:none;fill-rule:nonzero;fill:rgb(19.215686%,15.686275%,70.196078%);fill-opacity:1;" d="M 36.777344 0 L 36.777344 15.179688 L 14.503906 25.738281 L 0.128906 16.496094 Z M 36.777344 0 "/>
<path style=" stroke:none;fill-rule:nonzero;fill:rgb(12.156863%,9.411765%,52.941176%);fill-opacity:1;" d="M 14.503906 76 L 0.128906 66.652344 L 0.128906 16.496094 L 14.503906 25.738281 Z M 14.503906 76 "/>
<path style=" stroke:none;fill-rule:nonzero;fill:rgb(16.470588%,9.411765%,63.921569%);fill-opacity:1;" d="M 36.777344 0 L 36.777344 49.933594 L 51.042969 59.503906 L 51.042969 9.347656 Z M 36.777344 0 "/>
<path style=" stroke:none;fill-rule:nonzero;fill:rgb(19.215686%,15.686275%,70.196078%);fill-opacity:1;" d="M 14.503906 76 L 51.042969 59.503906 L 36.777344 49.933594 L 14.503906 60.160156 Z M 14.503906 76 "/>
<path style=" stroke:none;fill-rule:nonzero;fill:rgb(52.941176%,85.490196%,88.235294%);fill-opacity:1;" d="M 36.886719 49.933594 L 51.152344 59.503906 L 51.152344 43.335938 Z M 36.886719 49.933594 "/>
</g>
</svg>
